<svg xmlns="http://www.w3.org/2000/svg" preserveAspectRatio="none" width="150" height="80" viewBox="0 0 150 80">
  <rect x="1" y="1" width="148" height="78" rx="10" fill="#6b4226"/>
  <rect x="6" y="6" width="138" height="68" rx="7" fill="#9a6337"/>
  <path d="M12 22 Q60 18 138 24 M12 44 Q80 40 138 46 M12 62 Q70 58 138 63" stroke="#86532b" stroke-width="1.5" fill="none"/>
  <g transform="rotate(-10 42 36)">
    <rect x="22" y="20" width="40" height="32" rx="2" fill="#efe9dc" stroke="#bdb4a2"/>
    <rect x="26" y="24" width="32" height="10" fill="#e25d4c"/>
    <path d="M26 39 H58 M26 43 H52 M26 47 H56" stroke="#9c9486" stroke-width="1.5"/>
  </g>
  <rect x="70" y="50" width="26" height="8" rx="3" fill="#2d2d2d" transform="rotate(18 83 54)"/>
  <circle cx="115" cy="34" r="12" fill="#fff" stroke="#c9c9c9" stroke-width="2"/>
  <circle cx="115" cy="34" r="8" fill="#6b3b1e"/>
  <path d="M127 34 h6" stroke="#fff" stroke-width="5" stroke-linecap="round"/>
</svg>
